<?xml version="1.0" encoding="utf-8"?>
<!-- Generator: Adobe Illustrator 25.4.1, SVG Export Plug-In . SVG Version: 6.00 Build 0)  -->
<svg version="1.1" id="图层_1" xmlns="http://www.w3.org/2000/svg" xmlns:xlink="http://www.w3.org/1999/xlink" x="0px" y="0px"
	 viewBox="0 0 1920 1080" style="enable-background:new 0 0 1920 1080;" xml:space="preserve">
<style type="text/css">
	.st0{fill:#004499;}
	.st1{fill:url(#SVGID_1_);}
</style>
<path class="st0" d="M808.4,275.4c-49.8-3.2-96.9,7.5-137.9,28.4c-32.3,16.4-60.7,39.3-83.8,66.8c-6.8,8.1-13.2,16.7-19,25.6
	c-3.9,6-7.7,11.9-11.8,17.7L392.7,644c-27.7,39-71.7,63.5-117.9,65.7c-1.5,0.1-3,0.1-4.5,0.2c-45,0.9-87.8-16-120.5-47.6
	c-41.3-39.9-59.7-96.8-48.3-154.8c4.5-23,14-44.9,27.8-63.9c32.8-45.4,83.1-70.9,137.5-70.9c38.7,0,75.1,12.7,105.2,36.9
	c20.4,16.3,50.8,14.9,68.2-4.5c18.8-21,16-53.1-5.6-70.7c-47.3-38.4-106.9-59.5-167.9-59.5c-81.7,0-157.7,36.5-209.5,101.7
	C27.6,413.9,8.7,458.9,2.6,506.2C-8.3,591.6,21,673.9,81.8,732.6c50.2,48.6,115.7,75.1,185,75.1c1.8,0,3.7,0,5.5-0.1
	c2.4-0.1,4.8-0.1,7.2-0.2c76-3.6,148.1-43.5,193.1-106.8l62-87.4C566,725.3,669.1,807.7,791.1,807.7
	c149.5,0,270.7-123.8,266.3-274.3C1053.5,397.1,944.5,284,808.4,275.4z M791.1,709.9c-92.9,0-168.6-75.6-168.6-168.6
	c0-30.2,8-58.5,21.9-83l19.6-27.6c30.9-35.5,76.4-57.9,127-57.9c92.9,0,168.6,75.6,168.6,168.6C959.7,634.2,884.1,709.9,791.1,709.9
	z"/>
<linearGradient id="SVGID_1_" gradientUnits="userSpaceOnUse" x1="566.2467" y1="536.6135" x2="743.9628" y2="714.3295">
	<stop  offset="0" style="stop-color:#00193C"/>
	<stop  offset="0.67" style="stop-color:#004499;stop-opacity:0.8"/>
</linearGradient>
<path class="st1" d="M622.6,541.3c0-30.1,8-58.4,21.9-82.9l-109.8,155C555.5,687.7,608,749,676.5,781.8l72.9-77.1
	C676.6,686,622.6,619.8,622.6,541.3z"/>
<g>
	<g>
		<path class="st0" d="M1640.1,584.7c0,0,0,69-0.1,69.5c-0.3,12.6-3.9,24.4-11,35.4c-4.9,7.7-10.9,14.6-19.9,21
			c-4.6,2.3-9.6,4.1-14.8,5.2v47.8c35.5-4,65.8-25.2,82.2-55.2c0.2-0.3,0.3-0.6,0.5-0.9c1-1.9,1.9-3.9,2.9-5.9
			c6.2-14.1,9.5-29.9,9.7-47.4c0-0.3,0-0.5,0-0.8c0-0.3,0-0.5,0-0.8v-67.9H1640.1z"/>
		<rect x="1807.9" y="584.7" class="st0" width="49" height="178.9"/>
		<path class="st0" d="M1794.5,501.1c-5.6-3.1-9.9-5.5-12.9-7.3h127.1V318.9h-323.5v174.9H1711c-3,1.7-7.3,4.1-12.9,7.3
			c-41.5,21.6-82.7,37.7-125.9,48.3V599c38.1-8.5,72-19.6,102.9-33.2c30.9-13.6,48.9-27.4,71.1-41.4c0,0,0,0,0,0v0.1
			c0,0,0.1-0.1,0.1-0.1c0,0,0.1,0,0.1,0.1v-0.1c0,0,0,0,0,0c22.2,14,40.2,27.8,71.1,41.4c30.9,13.6,64.7,24.7,102.8,33.2v-49.7
			C1877.2,538.7,1836,522.7,1794.5,501.1z M1771.8,360.9h89.2v25.6h-89.2V360.9z M1771.8,426.2h89.2v25.6h-89.2V426.2z
			 M1633.1,360.9h89.2v25.6h-89.2V360.9z M1633.1,451.8v-25.6h89.2v25.6H1633.1z"/>
	</g>
	<g>
		<rect x="1174.3" y="318.9" class="st0" width="303.1" height="42"/>
		<path class="st0" d="M1500.2,543.9v-42h-348.7v42h75.2l-48.4,202.9c-2,8.6,4.5,16.8,13.3,16.8h278.3c9.4,0,15.9-9.2,12.9-18.1
			l-29.6-85.6h-46h-1.5l21.3,61.7h-190.8l42.5-177.8H1500.2z"/>
	</g>
</g>
</svg>
