<?xml version="1.0" encoding="utf-8"?>
<!-- Generator: Adobe Illustrator 25.4.1, SVG Export Plug-In . SVG Version: 6.00 Build 0)  -->
<svg version="1.1" id="图层_1" xmlns="http://www.w3.org/2000/svg" xmlns:xlink="http://www.w3.org/1999/xlink" x="0px" y="0px"
	 viewBox="0 0 190 40" style="enable-background:new 0 0 190 40;" xml:space="preserve">
<style type="text/css">
	.st0{fill:#004499;}
</style>
<g>
	<g>
		<g>
			<path class="st0" d="M118.2,22.8c0,0,0,4.4,0,4.5c0,0.8-0.3,1.6-0.7,2.3c-0.3,0.5-0.7,0.9-1.3,1.4c-0.3,0.1-0.6,0.3-1,0.3v3.1
				c2.3-0.3,4.2-1.6,5.3-3.5c0,0,0,0,0-0.1c0.1-0.1,0.1-0.3,0.2-0.4c0.4-0.9,0.6-1.9,0.6-3c0,0,0,0,0-0.1c0,0,0,0,0-0.1v-4.4H118.2z
				"/>
			<rect x="128.9" y="22.8" class="st0" width="3.1" height="11.5"/>
			<path class="st0" d="M128.1,17.4c-0.4-0.2-0.6-0.4-0.8-0.5h8.2V5.7h-20.8v11.2h8.1c-0.2,0.1-0.5,0.3-0.8,0.5
				c-2.7,1.4-5.3,2.4-8.1,3.1v3.2c2.4-0.5,4.6-1.3,6.6-2.1c2-0.9,3.1-1.8,4.6-2.7c0,0,0,0,0,0v0c0,0,0,0,0,0c0,0,0,0,0,0v0
				c0,0,0,0,0,0c1.4,0.9,2.6,1.8,4.6,2.7c2,0.9,4.2,1.6,6.6,2.1v-3.2C133.4,19.8,130.7,18.8,128.1,17.4z M126.6,8.4h5.7V10h-5.7V8.4
				z M126.6,12.6h5.7v1.6h-5.7V12.6z M117.7,8.4h5.7V10h-5.7V8.4z M117.7,14.2v-1.6h5.7v1.6H117.7z"/>
		</g>
		<g>
			<rect x="88.2" y="5.7" class="st0" width="19.5" height="2.7"/>
			<path class="st0" d="M109.2,20.2v-2.7H86.8v2.7h4.8l-3.1,13c-0.1,0.6,0.3,1.1,0.9,1.1h17.9c0.6,0,1-0.6,0.8-1.2l-1.9-5.5h-3h-0.1
				l1.4,4H92.2l2.7-11.4H109.2z"/>
		</g>
		<g>
			<path class="st0" d="M140.8,5.7v28.6h2.9V8.3h0.1h16.5c0,0,0,19.4,0,19.5c0,0.7-0.2,1.4-0.6,2.1c-0.3,0.5-0.6,0.9-1.2,1.2
				c-0.2,0.2-0.5,0.3-0.9,0.5v2.6c0.9-0.1,1.8-0.4,2.5-0.9c1-0.6,1.8-1.4,2.3-2.4c0,0,0.1-0.3,0.2-0.4c0.4-0.8,0.6-1.8,0.6-2.8
				c0,0,0,0,0,0c0,0,0,0,0,0v-22H140.8z"/>
			<path class="st0" d="M151.5,10.9h-2.7c-0.5,1.8-0.8,2.9-0.9,3.4c-0.1-0.5-0.4-1.6-0.9-3.4h-2.7c0.1,0.4,1.5,5.9,2.3,9.3
				c0,0,0,0,0,0h0c0,0,0,0,0,0c0,0,0,0,0,0h0c0,0,0,0,0,0c-0.8,3.4-2.2,8.9-2.3,9.3h2.7c0.5-1.8,0.8-2.9,0.9-3.4
				c0.1,0.5,0.4,1.6,0.9,3.4h2.7c-0.1-0.4-1.5-5.9-2.3-9.3c0,0,0,0,0,0h0c0,0,0,0,0,0c0,0,0,0,0,0h0c0,0,0,0,0,0
				C150,16.8,151.4,11.3,151.5,10.9z"/>
			<path class="st0" d="M159.3,29.6c-0.1-0.4-1.5-5.9-2.3-9.3c0,0,0,0,0,0h0c0,0,0,0,0,0c0,0,0,0,0,0h0c0,0,0,0,0,0
				c0.8-3.4,2.2-8.9,2.3-9.3h-2.7c-0.5,1.8-0.8,2.9-0.9,3.4c-0.1-0.5-0.4-1.6-0.9-3.4h-2.7c0.1,0.4,1.5,5.9,2.3,9.3c0,0,0,0,0,0h0
				c0,0,0,0,0,0c0,0,0,0,0,0h0c0,0,0,0,0,0c-0.8,3.4-2.2,8.9-2.3,9.3h2.7c0.5-1.8,0.8-2.9,0.9-3.4c0.1,0.5,0.4,1.6,0.9,3.4H159.3z"
				/>
		</g>
		<g>
			<rect x="168.1" y="31.6" class="st0" width="7.6" height="2.7"/>
			<path class="st0" d="M176.7,22.1v12.2h12.4V22.1H176.7z M185.9,31.5h-6v-6.6h6V31.5z"/>
			<path class="st0" d="M175.7,29.7V27H172c1.8-5.5,3-9.6,4.1-13.5h-3l-0.5,1.8h-1.3l2.9-9.6h-3L167.6,18l4.2,0
				c-1.1,3.9-2.5,8.1-3.7,11.7H175.7z"/>
			<path class="st0" d="M187.8,12.6c0.8-1.3,1.3-2.5,1.6-3.6c0.3-1.1,0.5-1.9,0.6-2.4h-9.2l0.3-1h-3.4L177,8.2l-1.1,3.5
				c0.5,0.5,1.6,1.5,2.6,2.4c0.8,0.8,1.6,1.5,1.9,1.7c-1.4,0.8-3,1.5-4.7,1.8v3.1c0.2,0,0.9-0.2,0.9-0.2c2.4-0.6,4.6-1.5,6.4-2.8
				c0.3,0.2,0.8,0.5,1.5,0.9c1.5,0.9,3.1,1.5,4.8,1.9c0.4,0.1,0.6,0.1,0.7,0.1v-3.1c-1.6-0.4-3.1-1-4.6-2
				C186.4,14.7,187.2,13.7,187.8,12.6z M182.9,14l-0.2-0.2c-1.1-0.9-2-1.7-2.7-2.6c-0.1-0.1-0.2-0.3-0.4-0.4l0.5-1.5h0.3h5.8
				c-0.2,0.6-0.6,1.2-0.9,1.8C184.6,12.2,183.8,13.1,182.9,14z"/>
		</g>
	</g>
	<path class="st0" d="M60.8,0C57-0.2,53.5,0.6,50.4,2.2c-2.4,1.2-4.6,2.9-6.3,5c-0.5,0.6-1,1.3-1.4,1.9c-0.3,0.4-0.6,0.9-0.9,1.3
		L29.6,27.7c-2.1,2.9-5.4,4.8-8.8,4.9c-0.1,0-0.2,0-0.3,0c-3.4,0.1-6.6-1.2-9-3.6c-3.1-3-4.5-7.3-3.6-11.6c0.3-1.7,1.1-3.4,2.1-4.8
		c2.5-3.4,6.2-5.3,10.3-5.3c2.9,0,5.6,1,7.9,2.8c1.5,1.2,3.8,1.1,5.1-0.3c1.4-1.6,1.2-4-0.4-5.3C29.2,1.6,24.7,0,20.1,0
		C14,0,8.3,2.7,4.4,7.6c-2.2,2.8-3.6,6.2-4.1,9.7c-0.8,6.4,1.4,12.6,5.9,17C10,38,14.9,40,20.1,40c0.1,0,0.3,0,0.4,0
		c0.2,0,0.4,0,0.5,0c5.7-0.3,11.1-3.3,14.5-8l4.7-6.6C42.6,33.8,50.3,40,59.5,40c11.2,0,20.3-9.3,20-20.6C79.2,9.2,71,0.7,60.8,0z
		 M59.5,32.7c-7,0-12.7-5.7-12.7-12.7c0-2.3,0.6-4.4,1.6-6.2l1.5-2.1c2.3-2.7,5.7-4.3,9.5-4.3c7,0,12.7,5.7,12.7,12.7
		C72.1,27,66.4,32.7,59.5,32.7z"/>
</g>
</svg>
