<?xml version="1.0" encoding="utf-8"?>
<!-- Generator: Adobe Illustrator 25.4.1, SVG Export Plug-In . SVG Version: 6.00 Build 0)  -->
<svg version="1.1" id="图层_1" xmlns="http://www.w3.org/2000/svg" xmlns:xlink="http://www.w3.org/1999/xlink" x="0px" y="0px"
	 viewBox="0 0 134 29" style="enable-background:new 0 0 134 29;" xml:space="preserve">
<style type="text/css">
	.st0{fill:none;}
	.st1{fill:#FFFFFF;}
</style>
<rect class="st0" width="134" height="29"/>
<g>
	<g>
		<g>
			<path class="st1" d="M48.6,15.8c0,0,0,2,0,2.1c0,0.4-0.1,0.7-0.3,1c-0.1,0.2-0.3,0.4-0.6,0.6c-0.1,0.1-0.3,0.1-0.4,0.2v1.4
				c1.1-0.1,1.9-0.7,2.4-1.6l0,0c0-0.1,0.1-0.1,0.1-0.2c0.2-0.4,0.3-0.9,0.3-1.4l0,0l0,0v-2L48.6,15.8L48.6,15.8z"/>
			<rect x="53.6" y="15.8" class="st1" width="1.4" height="5.3"/>
			<path class="st1" d="M53.2,13.3c-0.2-0.1-0.3-0.2-0.4-0.2h3.8V7.9H47v5.2h3.7c-0.1,0.1-0.2,0.1-0.4,0.2c-1.2,0.6-2.4,1.1-3.7,1.4
				v1.5c1.1-0.3,2.1-0.6,3-1s1.4-0.8,2.1-1.2l0,0l0,0l0,0l0,0l0,0l0,0c0.7,0.4,1.2,0.8,2.1,1.2c0.9,0.4,1.9,0.7,3,1v-1.5
				C55.7,14.4,54.4,13.9,53.2,13.3z M52.5,9.2h2.6V10h-2.6V9.2z M52.5,11.1h2.6v0.8h-2.6V11.1z M48.4,9.2H51V10h-2.6V9.2z
				 M48.4,11.9v-0.8H51v0.8H48.4z"/>
		</g>
		<g>
			<rect x="34.9" y="7.9" class="st1" width="9" height="1.2"/>
			<path class="st1" d="M44.5,14.6v-1.2H34.2v1.2h2.2l-1.4,6c-0.1,0.3,0.1,0.5,0.4,0.5h8.2c0.3,0,0.5-0.3,0.4-0.5L43.1,18h-1.4l0,0
				l0.6,1.8h-5.6l1.3-5.3h6.5V14.6z"/>
		</g>
	</g>
	<path class="st1" d="M24,6.6c-1.5-0.1-2.9,0.2-4.1,0.8c-1,0.5-1.8,1.2-2.5,2c-0.2,0.2-0.4,0.5-0.6,0.8c-0.1,0.2-0.2,0.4-0.3,0.5
		l-4.8,6.8c-0.8,1.2-2.1,1.9-3.5,1.9H8.1c-1.3,0-2.6-0.5-3.6-1.4c-1.2-1.2-1.8-2.9-1.4-4.6c0.1-0.7,0.4-1.3,0.8-1.9
		c1-1.3,2.5-2.1,4.1-2.1c1.1,0,2.2,0.4,3.1,1.1c0.6,0.5,1.5,0.4,2-0.1c0.6-0.6,0.5-1.6-0.2-2.1c-1.4-1.1-3.2-1.8-5-1.8
		c-2.4,0-4.7,1.1-6.2,3c-0.9,1.1-1.4,2.4-1.6,3.8c-0.3,2.5,0.5,5,2.3,6.7c1.5,1.4,3.4,2.2,5.5,2.2c0.1,0,0.1,0,0.2,0
		c0.1,0,0.1,0,0.2,0c2.2-0.1,4.4-1.3,5.7-3.2l1.8-2.6c0.9,3.3,4,5.8,7.6,5.8c4.4,0,8-3.7,7.9-8.1C31.3,10.2,28.1,6.9,24,6.6z
		 M23.5,19.5c-2.7,0-5-2.2-5-5c0-0.9,0.2-1.7,0.6-2.5l0.6-0.8c0.9-1,2.3-1.7,3.8-1.7c2.7,0,5,2.2,5,5C28.5,17.2,26.3,19.5,23.5,19.5
		z"/>
</g>
</svg>
